<mxfile host="app.diagrams.net" modified="2024-01-04T21:27:55.680Z" agent="Mozilla/5.0 (Windows NT 10.0; Win64; x64) AppleWebKit/537.36 (KHTML, like Gecko) Chrome/120.0.0.0 Safari/537.36" etag="QtBbuFTW5UzcPsNtk7Yx" version="22.1.16" type="device">
  <diagram name="Page-1" id="2YBvvXClWsGukQMizWep">
    <mxGraphModel dx="2612" dy="785" grid="1" gridSize="10" guides="1" tooltips="1" connect="1" arrows="1" fold="1" page="1" pageScale="1" pageWidth="850" pageHeight="1100" math="0" shadow="0">
      <root>
        <mxCell id="0" />
        <mxCell id="1" parent="0" />
        <mxCell id="ThjzBNZsG-Bt_CLa7xAM-4" value="Educator" style="shape=umlActor;verticalLabelPosition=bottom;verticalAlign=top;html=1;outlineConnect=0;" parent="1" vertex="1">
          <mxGeometry x="40" y="20" width="30" height="60" as="geometry" />
        </mxCell>
        <mxCell id="ThjzBNZsG-Bt_CLa7xAM-9" value="" style="endArrow=none;dashed=1;html=1;rounded=0;" parent="1" edge="1">
          <mxGeometry width="50" height="50" relative="1" as="geometry">
            <mxPoint x="55" y="920" as="sourcePoint" />
            <mxPoint x="55" y="110" as="targetPoint" />
          </mxGeometry>
        </mxCell>
        <mxCell id="ThjzBNZsG-Bt_CLa7xAM-11" value="" style="endArrow=none;dashed=1;html=1;rounded=0;" parent="1" edge="1">
          <mxGeometry width="50" height="50" relative="1" as="geometry">
            <mxPoint x="54.95" y="580" as="sourcePoint" />
            <mxPoint x="54.95" y="970" as="targetPoint" />
          </mxGeometry>
        </mxCell>
        <mxCell id="ThjzBNZsG-Bt_CLa7xAM-10" value="" style="html=1;points=[];perimeter=orthogonalPerimeter;outlineConnect=0;targetShapes=umlLifeline;portConstraint=eastwest;newEdgeStyle={&quot;edgeStyle&quot;:&quot;elbowEdgeStyle&quot;,&quot;elbow&quot;:&quot;vertical&quot;,&quot;curved&quot;:0,&quot;rounded&quot;:0};" parent="1" vertex="1">
          <mxGeometry x="50" y="116" width="10" height="844" as="geometry" />
        </mxCell>
        <mxCell id="ThjzBNZsG-Bt_CLa7xAM-12" value="Web App" style="shape=umlLifeline;perimeter=lifelinePerimeter;whiteSpace=wrap;html=1;container=0;dropTarget=0;collapsible=0;recursiveResize=0;outlineConnect=0;portConstraint=eastwest;newEdgeStyle={&quot;edgeStyle&quot;:&quot;elbowEdgeStyle&quot;,&quot;elbow&quot;:&quot;vertical&quot;,&quot;curved&quot;:0,&quot;rounded&quot;:0};" parent="1" vertex="1">
          <mxGeometry x="265" y="30" width="100" height="940" as="geometry" />
        </mxCell>
        <mxCell id="ThjzBNZsG-Bt_CLa7xAM-13" value="" style="html=1;points=[];perimeter=orthogonalPerimeter;outlineConnect=0;targetShapes=umlLifeline;portConstraint=eastwest;newEdgeStyle={&quot;edgeStyle&quot;:&quot;elbowEdgeStyle&quot;,&quot;elbow&quot;:&quot;vertical&quot;,&quot;curved&quot;:0,&quot;rounded&quot;:0};" parent="ThjzBNZsG-Bt_CLa7xAM-12" vertex="1">
          <mxGeometry x="45" y="160" width="10" height="30" as="geometry" />
        </mxCell>
        <mxCell id="ThjzBNZsG-Bt_CLa7xAM-38" value="" style="html=1;points=[];perimeter=orthogonalPerimeter;outlineConnect=0;targetShapes=umlLifeline;portConstraint=eastwest;newEdgeStyle={&quot;edgeStyle&quot;:&quot;elbowEdgeStyle&quot;,&quot;elbow&quot;:&quot;vertical&quot;,&quot;curved&quot;:0,&quot;rounded&quot;:0};" parent="ThjzBNZsG-Bt_CLa7xAM-12" vertex="1">
          <mxGeometry x="45" y="290" width="10" height="420" as="geometry" />
        </mxCell>
        <mxCell id="ThjzBNZsG-Bt_CLa7xAM-77" value="" style="html=1;points=[];perimeter=orthogonalPerimeter;outlineConnect=0;targetShapes=umlLifeline;portConstraint=eastwest;newEdgeStyle={&quot;edgeStyle&quot;:&quot;elbowEdgeStyle&quot;,&quot;elbow&quot;:&quot;vertical&quot;,&quot;curved&quot;:0,&quot;rounded&quot;:0};" parent="ThjzBNZsG-Bt_CLa7xAM-12" vertex="1">
          <mxGeometry x="45" y="730" width="10" height="40" as="geometry" />
        </mxCell>
        <mxCell id="ThjzBNZsG-Bt_CLa7xAM-103" value="" style="html=1;points=[];perimeter=orthogonalPerimeter;outlineConnect=0;targetShapes=umlLifeline;portConstraint=eastwest;newEdgeStyle={&quot;edgeStyle&quot;:&quot;elbowEdgeStyle&quot;,&quot;elbow&quot;:&quot;vertical&quot;,&quot;curved&quot;:0,&quot;rounded&quot;:0};" parent="ThjzBNZsG-Bt_CLa7xAM-12" vertex="1">
          <mxGeometry x="45" y="870" width="10" height="56" as="geometry" />
        </mxCell>
        <mxCell id="ThjzBNZsG-Bt_CLa7xAM-23" value="1 : click(manuallyEvaluateBattleButton)" style="html=1;verticalAlign=bottom;endArrow=block;edgeStyle=elbowEdgeStyle;elbow=vertical;curved=0;rounded=0;" parent="1" target="ThjzBNZsG-Bt_CLa7xAM-13" edge="1">
          <mxGeometry relative="1" as="geometry">
            <mxPoint x="60" y="190" as="sourcePoint" />
            <Array as="points">
              <mxPoint x="75" y="190" />
            </Array>
            <mxPoint x="369.5" y="190" as="targetPoint" />
          </mxGeometry>
        </mxCell>
        <mxCell id="ThjzBNZsG-Bt_CLa7xAM-24" value="2 : showPage(manuallyEvaluationPage)" style="html=1;verticalAlign=bottom;endArrow=open;dashed=1;endSize=8;edgeStyle=elbowEdgeStyle;elbow=vertical;curved=0;rounded=0;" parent="1" source="ThjzBNZsG-Bt_CLa7xAM-13" target="ThjzBNZsG-Bt_CLa7xAM-10" edge="1">
          <mxGeometry relative="1" as="geometry">
            <mxPoint x="180" y="220" as="targetPoint" />
            <Array as="points">
              <mxPoint x="205" y="220" />
            </Array>
            <mxPoint x="280" y="220" as="sourcePoint" />
          </mxGeometry>
        </mxCell>
        <mxCell id="ThjzBNZsG-Bt_CLa7xAM-28" value="" style="html=1;points=[];perimeter=orthogonalPerimeter;outlineConnect=0;targetShapes=umlLifeline;portConstraint=eastwest;newEdgeStyle={&quot;edgeStyle&quot;:&quot;elbowEdgeStyle&quot;,&quot;elbow&quot;:&quot;vertical&quot;,&quot;curved&quot;:0,&quot;rounded&quot;:0};" parent="1" vertex="1">
          <mxGeometry x="56" y="263" width="10" height="26" as="geometry" />
        </mxCell>
        <mxCell id="ThjzBNZsG-Bt_CLa7xAM-33" value="" style="endArrow=classic;html=1;rounded=0;" parent="1" target="ThjzBNZsG-Bt_CLa7xAM-28" edge="1">
          <mxGeometry width="50" height="50" relative="1" as="geometry">
            <mxPoint x="61" y="240" as="sourcePoint" />
            <mxPoint x="151" y="240" as="targetPoint" />
            <Array as="points">
              <mxPoint x="90" y="240" />
              <mxPoint x="90" y="265" />
            </Array>
          </mxGeometry>
        </mxCell>
        <mxCell id="ThjzBNZsG-Bt_CLa7xAM-36" value="&lt;font style=&quot;font-size: 11px;&quot;&gt;3 : manuallyEvaluate(evaluationData)&lt;/font&gt;" style="text;html=1;align=center;verticalAlign=middle;resizable=0;points=[];autosize=1;strokeColor=none;fillColor=none;" parent="1" vertex="1">
          <mxGeometry x="90" y="240" width="210" height="30" as="geometry" />
        </mxCell>
        <mxCell id="ThjzBNZsG-Bt_CLa7xAM-37" value="4 : click(ConfirmButton)" style="html=1;verticalAlign=bottom;endArrow=block;edgeStyle=elbowEdgeStyle;elbow=vertical;curved=0;rounded=0;" parent="1" target="ThjzBNZsG-Bt_CLa7xAM-38" edge="1">
          <mxGeometry relative="1" as="geometry">
            <mxPoint x="60" y="320" as="sourcePoint" />
            <Array as="points">
              <mxPoint x="75" y="320" />
            </Array>
            <mxPoint x="340" y="320" as="targetPoint" />
          </mxGeometry>
        </mxCell>
        <mxCell id="ThjzBNZsG-Bt_CLa7xAM-39" value="Evaluation Manager" style="shape=umlLifeline;perimeter=lifelinePerimeter;whiteSpace=wrap;html=1;container=0;dropTarget=0;collapsible=0;recursiveResize=0;outlineConnect=0;portConstraint=eastwest;newEdgeStyle={&quot;edgeStyle&quot;:&quot;elbowEdgeStyle&quot;,&quot;elbow&quot;:&quot;vertical&quot;,&quot;curved&quot;:0,&quot;rounded&quot;:0};" parent="1" vertex="1">
          <mxGeometry x="570" y="30" width="120" height="940" as="geometry" />
        </mxCell>
        <mxCell id="ThjzBNZsG-Bt_CLa7xAM-44" value="" style="html=1;points=[];perimeter=orthogonalPerimeter;outlineConnect=0;targetShapes=umlLifeline;portConstraint=eastwest;newEdgeStyle={&quot;edgeStyle&quot;:&quot;elbowEdgeStyle&quot;,&quot;elbow&quot;:&quot;vertical&quot;,&quot;curved&quot;:0,&quot;rounded&quot;:0};" parent="ThjzBNZsG-Bt_CLa7xAM-39" vertex="1">
          <mxGeometry x="55" y="310" width="10" height="320" as="geometry" />
        </mxCell>
        <mxCell id="ThjzBNZsG-Bt_CLa7xAM-78" value="" style="html=1;points=[];perimeter=orthogonalPerimeter;outlineConnect=0;targetShapes=umlLifeline;portConstraint=eastwest;newEdgeStyle={&quot;edgeStyle&quot;:&quot;elbowEdgeStyle&quot;,&quot;elbow&quot;:&quot;vertical&quot;,&quot;curved&quot;:0,&quot;rounded&quot;:0};" parent="ThjzBNZsG-Bt_CLa7xAM-39" vertex="1">
          <mxGeometry x="55" y="730" width="10" height="26" as="geometry" />
        </mxCell>
        <mxCell id="ThjzBNZsG-Bt_CLa7xAM-99" value="" style="html=1;points=[];perimeter=orthogonalPerimeter;outlineConnect=0;targetShapes=umlLifeline;portConstraint=eastwest;newEdgeStyle={&quot;edgeStyle&quot;:&quot;elbowEdgeStyle&quot;,&quot;elbow&quot;:&quot;vertical&quot;,&quot;curved&quot;:0,&quot;rounded&quot;:0};" parent="ThjzBNZsG-Bt_CLa7xAM-39" vertex="1">
          <mxGeometry x="55" y="800" width="10" height="26" as="geometry" />
        </mxCell>
        <mxCell id="ThjzBNZsG-Bt_CLa7xAM-104" value="" style="html=1;points=[];perimeter=orthogonalPerimeter;outlineConnect=0;targetShapes=umlLifeline;portConstraint=eastwest;newEdgeStyle={&quot;edgeStyle&quot;:&quot;elbowEdgeStyle&quot;,&quot;elbow&quot;:&quot;vertical&quot;,&quot;curved&quot;:0,&quot;rounded&quot;:0};" parent="ThjzBNZsG-Bt_CLa7xAM-39" vertex="1">
          <mxGeometry x="55" y="870" width="10" height="26" as="geometry" />
        </mxCell>
        <mxCell id="ThjzBNZsG-Bt_CLa7xAM-105" value="21 : showMessage(permissionDenied)" style="html=1;verticalAlign=bottom;endArrow=open;dashed=1;endSize=8;edgeStyle=elbowEdgeStyle;elbow=horizontal;curved=0;rounded=0;" parent="ThjzBNZsG-Bt_CLa7xAM-39" source="ThjzBNZsG-Bt_CLa7xAM-103" edge="1">
          <mxGeometry x="-0.001" relative="1" as="geometry">
            <mxPoint x="-510" y="926" as="targetPoint" />
            <Array as="points">
              <mxPoint x="-252.5" y="926" />
            </Array>
            <mxPoint x="-217.5" y="926" as="sourcePoint" />
            <mxPoint as="offset" />
          </mxGeometry>
        </mxCell>
        <mxCell id="ThjzBNZsG-Bt_CLa7xAM-43" value="5 : editScore(battleId, userId, score, studentID, description)" style="html=1;verticalAlign=bottom;endArrow=block;edgeStyle=elbowEdgeStyle;elbow=vertical;curved=0;rounded=0;" parent="1" target="ThjzBNZsG-Bt_CLa7xAM-44" edge="1" source="ThjzBNZsG-Bt_CLa7xAM-38">
          <mxGeometry relative="1" as="geometry">
            <mxPoint x="375" y="340" as="sourcePoint" />
            <Array as="points">
              <mxPoint x="390" y="340" />
            </Array>
            <mxPoint x="475" y="340" as="targetPoint" />
          </mxGeometry>
        </mxCell>
        <mxCell id="ThjzBNZsG-Bt_CLa7xAM-46" value="Account Manager" style="shape=umlLifeline;perimeter=lifelinePerimeter;whiteSpace=wrap;html=1;container=0;dropTarget=0;collapsible=0;recursiveResize=0;outlineConnect=0;portConstraint=eastwest;newEdgeStyle={&quot;edgeStyle&quot;:&quot;elbowEdgeStyle&quot;,&quot;elbow&quot;:&quot;vertical&quot;,&quot;curved&quot;:0,&quot;rounded&quot;:0};" parent="1" vertex="1">
          <mxGeometry x="780" y="30" width="120" height="940" as="geometry" />
        </mxCell>
        <mxCell id="ThjzBNZsG-Bt_CLa7xAM-47" value="" style="html=1;points=[];perimeter=orthogonalPerimeter;outlineConnect=0;targetShapes=umlLifeline;portConstraint=eastwest;newEdgeStyle={&quot;edgeStyle&quot;:&quot;elbowEdgeStyle&quot;,&quot;elbow&quot;:&quot;vertical&quot;,&quot;curved&quot;:0,&quot;rounded&quot;:0};" parent="ThjzBNZsG-Bt_CLa7xAM-46" vertex="1">
          <mxGeometry x="55" y="330" width="10" height="30" as="geometry" />
        </mxCell>
        <mxCell id="ThjzBNZsG-Bt_CLa7xAM-49" value="" style="endArrow=classic;html=1;rounded=0;" parent="1" target="ThjzBNZsG-Bt_CLa7xAM-47" edge="1">
          <mxGeometry width="50" height="50" relative="1" as="geometry">
            <mxPoint x="635" y="360" as="sourcePoint" />
            <mxPoint x="835" y="360" as="targetPoint" />
          </mxGeometry>
        </mxCell>
        <mxCell id="ThjzBNZsG-Bt_CLa7xAM-50" value="&lt;font style=&quot;font-size: 11px;&quot;&gt;6 : checkUser(sessionData)&lt;/font&gt;" style="text;html=1;align=center;verticalAlign=middle;resizable=0;points=[];autosize=1;strokeColor=none;fillColor=none;" parent="1" vertex="1">
          <mxGeometry x="660" y="334" width="160" height="30" as="geometry" />
        </mxCell>
        <mxCell id="ThjzBNZsG-Bt_CLa7xAM-51" value="7 : outcomePermissionCheck" style="html=1;verticalAlign=bottom;endArrow=open;dashed=1;endSize=8;edgeStyle=elbowEdgeStyle;elbow=horizontal;curved=0;rounded=0;" parent="1" source="ThjzBNZsG-Bt_CLa7xAM-47" target="ThjzBNZsG-Bt_CLa7xAM-44" edge="1">
          <mxGeometry relative="1" as="geometry">
            <mxPoint x="690" y="390" as="targetPoint" />
            <Array as="points">
              <mxPoint x="715" y="390" />
            </Array>
            <mxPoint x="790" y="390" as="sourcePoint" />
          </mxGeometry>
        </mxCell>
        <mxCell id="ThjzBNZsG-Bt_CLa7xAM-52" value="DBMS" style="shape=umlLifeline;perimeter=lifelinePerimeter;whiteSpace=wrap;html=1;container=0;dropTarget=0;collapsible=0;recursiveResize=0;outlineConnect=0;portConstraint=eastwest;newEdgeStyle={&quot;edgeStyle&quot;:&quot;elbowEdgeStyle&quot;,&quot;elbow&quot;:&quot;vertical&quot;,&quot;curved&quot;:0,&quot;rounded&quot;:0};" parent="1" vertex="1">
          <mxGeometry x="910" y="30" width="100" height="940" as="geometry" />
        </mxCell>
        <mxCell id="ThjzBNZsG-Bt_CLa7xAM-53" value="" style="html=1;points=[];perimeter=orthogonalPerimeter;outlineConnect=0;targetShapes=umlLifeline;portConstraint=eastwest;newEdgeStyle={&quot;edgeStyle&quot;:&quot;elbowEdgeStyle&quot;,&quot;elbow&quot;:&quot;vertical&quot;,&quot;curved&quot;:0,&quot;rounded&quot;:0};" parent="ThjzBNZsG-Bt_CLa7xAM-52" vertex="1">
          <mxGeometry x="45" y="539" width="10" height="30" as="geometry" />
        </mxCell>
        <mxCell id="ThjzBNZsG-Bt_CLa7xAM-55" value="&lt;b&gt;alt &lt;/b&gt;: outcomePermissionCheck == true" style="shape=umlFrame;whiteSpace=wrap;html=1;pointerEvents=0;width=190;height=50;" parent="1" vertex="1">
          <mxGeometry x="-150" y="410" width="1160" height="560" as="geometry" />
        </mxCell>
        <mxCell id="ThjzBNZsG-Bt_CLa7xAM-56" value="[then]" style="text;html=1;align=center;verticalAlign=middle;resizable=0;points=[];autosize=1;strokeColor=none;fillColor=none;" parent="1" vertex="1">
          <mxGeometry x="-95" y="460" width="50" height="30" as="geometry" />
        </mxCell>
        <mxCell id="ThjzBNZsG-Bt_CLa7xAM-57" value="" style="html=1;points=[];perimeter=orthogonalPerimeter;outlineConnect=0;targetShapes=umlLifeline;portConstraint=eastwest;newEdgeStyle={&quot;edgeStyle&quot;:&quot;elbowEdgeStyle&quot;,&quot;elbow&quot;:&quot;vertical&quot;,&quot;curved&quot;:0,&quot;rounded&quot;:0};" parent="1" vertex="1">
          <mxGeometry x="630" y="443" width="10" height="26" as="geometry" />
        </mxCell>
        <mxCell id="ThjzBNZsG-Bt_CLa7xAM-58" value="" style="endArrow=classic;html=1;rounded=0;" parent="1" target="ThjzBNZsG-Bt_CLa7xAM-57" edge="1">
          <mxGeometry width="50" height="50" relative="1" as="geometry">
            <mxPoint x="635" y="420" as="sourcePoint" />
            <mxPoint x="725" y="420" as="targetPoint" />
            <Array as="points">
              <mxPoint x="675" y="420" />
              <mxPoint x="675" y="445" />
            </Array>
          </mxGeometry>
        </mxCell>
        <mxCell id="ThjzBNZsG-Bt_CLa7xAM-60" value="&lt;font style=&quot;font-size: 11px;&quot;&gt;8 : checkValidityScoreData(score)&lt;/font&gt;" style="text;html=1;align=center;verticalAlign=middle;resizable=0;points=[];autosize=1;strokeColor=none;fillColor=none;" parent="1" vertex="1">
          <mxGeometry x="670" y="420" width="190" height="30" as="geometry" />
        </mxCell>
        <mxCell id="ThjzBNZsG-Bt_CLa7xAM-62" value="&lt;b&gt;alt &lt;/b&gt;: scoreDataValid == true &amp;amp;&amp;amp; manualEvalEnabled == true" style="shape=umlFrame;whiteSpace=wrap;html=1;pointerEvents=0;width=180;height=40;" parent="1" vertex="1">
          <mxGeometry x="-140" y="540" width="1130" height="350" as="geometry" />
        </mxCell>
        <mxCell id="ThjzBNZsG-Bt_CLa7xAM-63" value="[then]" style="text;html=1;align=center;verticalAlign=middle;resizable=0;points=[];autosize=1;strokeColor=none;fillColor=none;" parent="1" vertex="1">
          <mxGeometry x="-80" y="580" width="50" height="30" as="geometry" />
        </mxCell>
        <mxCell id="ThjzBNZsG-Bt_CLa7xAM-67" value="&lt;b&gt;alt &lt;/b&gt;: outcomeMessage == true" style="shape=umlFrame;whiteSpace=wrap;html=1;pointerEvents=0;width=180;height=40;" parent="1" vertex="1">
          <mxGeometry x="-130" y="620" width="1110" height="200" as="geometry" />
        </mxCell>
        <mxCell id="ThjzBNZsG-Bt_CLa7xAM-68" value="12 : outcomeMessage" style="html=1;verticalAlign=bottom;endArrow=open;dashed=1;endSize=8;edgeStyle=elbowEdgeStyle;elbow=horizontal;curved=0;rounded=0;" parent="1" edge="1">
          <mxGeometry x="0.0009" relative="1" as="geometry">
            <mxPoint x="320.00000000000045" y="650" as="targetPoint" />
            <Array as="points">
              <mxPoint x="480" y="650" />
            </Array>
            <mxPoint x="624.9999999999995" y="650" as="sourcePoint" />
            <mxPoint as="offset" />
          </mxGeometry>
        </mxCell>
        <mxCell id="ThjzBNZsG-Bt_CLa7xAM-69" value="13 : showMessage(battleCorrectlyEvaluated)" style="html=1;verticalAlign=bottom;endArrow=open;dashed=1;endSize=8;edgeStyle=elbowEdgeStyle;elbow=horizontal;curved=0;rounded=0;" parent="1" edge="1">
          <mxGeometry x="-0.001" relative="1" as="geometry">
            <mxPoint x="60" y="680" as="targetPoint" />
            <Array as="points">
              <mxPoint x="190" y="680" />
            </Array>
            <mxPoint x="310.00000000000045" y="680" as="sourcePoint" />
            <mxPoint as="offset" />
          </mxGeometry>
        </mxCell>
        <mxCell id="ThjzBNZsG-Bt_CLa7xAM-70" value="15 : showPage(battleManagerPage)" style="html=1;verticalAlign=bottom;endArrow=open;dashed=1;endSize=8;edgeStyle=elbowEdgeStyle;elbow=horizontal;curved=0;rounded=0;" parent="1" edge="1">
          <mxGeometry x="-0.001" relative="1" as="geometry">
            <mxPoint x="60" y="740.21" as="targetPoint" />
            <Array as="points">
              <mxPoint x="280" y="740.21" />
            </Array>
            <mxPoint x="310" y="739.74" as="sourcePoint" />
            <mxPoint as="offset" />
          </mxGeometry>
        </mxCell>
        <mxCell id="ThjzBNZsG-Bt_CLa7xAM-71" value="14 : click(confirmButton)" style="html=1;verticalAlign=bottom;endArrow=block;edgeStyle=elbowEdgeStyle;elbow=vertical;curved=0;rounded=0;" parent="1" edge="1">
          <mxGeometry relative="1" as="geometry">
            <mxPoint x="60" y="710.1600000000001" as="sourcePoint" />
            <Array as="points" />
            <mxPoint x="310.00000000000045" y="710.0031578947369" as="targetPoint" />
          </mxGeometry>
        </mxCell>
        <mxCell id="ThjzBNZsG-Bt_CLa7xAM-73" value="&lt;b&gt;ref&lt;/b&gt;" style="shape=umlFrame;whiteSpace=wrap;html=1;pointerEvents=0;width=50;height=15;labelBorderColor=none;labelBackgroundColor=none;fontColor=default;swimlaneFillColor=default;" parent="1" vertex="1">
          <mxGeometry x="-150" y="120" width="1160" height="40" as="geometry" />
        </mxCell>
        <mxCell id="ThjzBNZsG-Bt_CLa7xAM-74" value="" style="endArrow=none;dashed=1;html=1;rounded=0;strokeWidth=2;exitX=0.002;exitY=0.695;exitDx=0;exitDy=0;exitPerimeter=0;" parent="1" edge="1">
          <mxGeometry width="50" height="50" relative="1" as="geometry">
            <mxPoint x="-130.00000000000006" y="759.4699999999999" as="sourcePoint" />
            <mxPoint x="980" y="760" as="targetPoint" />
          </mxGeometry>
        </mxCell>
        <mxCell id="ThjzBNZsG-Bt_CLa7xAM-75" value="&lt;font style=&quot;font-size: 12px;&quot;&gt;[else]&lt;/font&gt;" style="text;html=1;strokeColor=none;fillColor=none;align=center;verticalAlign=middle;whiteSpace=wrap;rounded=0;fontSize=10;" parent="1" vertex="1">
          <mxGeometry x="-65" y="765" width="35" height="10" as="geometry" />
        </mxCell>
        <mxCell id="ThjzBNZsG-Bt_CLa7xAM-76" value="[then]" style="text;html=1;align=center;verticalAlign=middle;resizable=0;points=[];autosize=1;strokeColor=none;fillColor=none;" parent="1" vertex="1">
          <mxGeometry x="-72.5" y="660" width="50" height="30" as="geometry" />
        </mxCell>
        <mxCell id="ThjzBNZsG-Bt_CLa7xAM-81" value="17 : showMessage(errorWhileupdatingScore)" style="html=1;verticalAlign=bottom;endArrow=open;dashed=1;endSize=8;edgeStyle=elbowEdgeStyle;elbow=horizontal;curved=0;rounded=0;" parent="1" source="ThjzBNZsG-Bt_CLa7xAM-77" edge="1">
          <mxGeometry x="-0.001" relative="1" as="geometry">
            <mxPoint x="60" y="800" as="targetPoint" />
            <Array as="points">
              <mxPoint x="70" y="800" />
            </Array>
            <mxPoint x="310.00000000000045" y="800" as="sourcePoint" />
            <mxPoint as="offset" />
          </mxGeometry>
        </mxCell>
        <mxCell id="ThjzBNZsG-Bt_CLa7xAM-83" value="&lt;font style=&quot;font-size: 12px;&quot;&gt;[else]&lt;/font&gt;" style="text;html=1;strokeColor=none;fillColor=none;align=center;verticalAlign=middle;whiteSpace=wrap;rounded=0;fontSize=10;" parent="1" vertex="1">
          <mxGeometry x="-72.5" y="840" width="35" height="10" as="geometry" />
        </mxCell>
        <mxCell id="ThjzBNZsG-Bt_CLa7xAM-84" value="&lt;font style=&quot;font-size: 12px;&quot;&gt;[else]&lt;/font&gt;" style="text;html=1;strokeColor=none;fillColor=none;align=center;verticalAlign=middle;whiteSpace=wrap;rounded=0;fontSize=10;" parent="1" vertex="1">
          <mxGeometry x="-87.5" y="910" width="35" height="10" as="geometry" />
        </mxCell>
        <mxCell id="ThjzBNZsG-Bt_CLa7xAM-97" value="" style="endArrow=none;dashed=1;html=1;rounded=0;strokeWidth=2;exitX=0.002;exitY=0.695;exitDx=0;exitDy=0;exitPerimeter=0;" parent="1" edge="1">
          <mxGeometry width="50" height="50" relative="1" as="geometry">
            <mxPoint x="-140" y="830" as="sourcePoint" />
            <mxPoint x="990" y="831" as="targetPoint" />
          </mxGeometry>
        </mxCell>
        <mxCell id="ThjzBNZsG-Bt_CLa7xAM-102" value="" style="endArrow=none;dashed=1;html=1;rounded=0;strokeWidth=2;exitX=0.002;exitY=0.695;exitDx=0;exitDy=0;exitPerimeter=0;" parent="1" edge="1">
          <mxGeometry width="50" height="50" relative="1" as="geometry">
            <mxPoint x="-150" y="900" as="sourcePoint" />
            <mxPoint x="1010" y="900" as="targetPoint" />
          </mxGeometry>
        </mxCell>
        <mxCell id="ThjzBNZsG-Bt_CLa7xAM-107" value="&lt;b&gt;&lt;font style=&quot;font-size: 20px;&quot;&gt;Login&lt;/font&gt;&lt;/b&gt;" style="text;html=1;strokeColor=none;fillColor=none;align=center;verticalAlign=middle;whiteSpace=wrap;rounded=0;" parent="1" vertex="1">
          <mxGeometry x="470" y="125" width="60" height="30" as="geometry" />
        </mxCell>
        <mxCell id="ThjzBNZsG-Bt_CLa7xAM-82" value="16 : outcomeMessage" style="html=1;verticalAlign=bottom;endArrow=open;dashed=1;endSize=8;edgeStyle=elbowEdgeStyle;elbow=horizontal;curved=0;rounded=0;" parent="1" source="ThjzBNZsG-Bt_CLa7xAM-78" edge="1" target="ThjzBNZsG-Bt_CLa7xAM-77">
          <mxGeometry x="-0.001" relative="1" as="geometry">
            <mxPoint x="375" y="786" as="targetPoint" />
            <Array as="points">
              <mxPoint x="540" y="786" />
            </Array>
            <mxPoint x="570" y="786" as="sourcePoint" />
            <mxPoint as="offset" />
          </mxGeometry>
        </mxCell>
        <mxCell id="ThjzBNZsG-Bt_CLa7xAM-100" value="19 : showMessage(scoreOrBattleEvalProblem)" style="html=1;verticalAlign=bottom;endArrow=open;dashed=1;endSize=8;edgeStyle=elbowEdgeStyle;elbow=horizontal;curved=0;rounded=0;" parent="1" source="ThjzBNZsG-Bt_CLa7xAM-98" edge="1">
          <mxGeometry x="-0.001" relative="1" as="geometry">
            <mxPoint x="60" y="867.95" as="targetPoint" />
            <Array as="points">
              <mxPoint x="266" y="867.95" />
            </Array>
            <mxPoint x="306.00000000000045" y="867.95" as="sourcePoint" />
            <mxPoint as="offset" />
          </mxGeometry>
        </mxCell>
        <mxCell id="ThjzBNZsG-Bt_CLa7xAM-106" value="20 : outcomeMessage" style="html=1;verticalAlign=bottom;endArrow=open;dashed=1;endSize=8;edgeStyle=elbowEdgeStyle;elbow=horizontal;curved=0;rounded=0;" parent="1" source="ThjzBNZsG-Bt_CLa7xAM-104" target="ThjzBNZsG-Bt_CLa7xAM-103" edge="1">
          <mxGeometry x="-0.001" relative="1" as="geometry">
            <mxPoint x="385" y="924.47" as="targetPoint" />
            <Array as="points">
              <mxPoint x="550" y="924.47" />
            </Array>
            <mxPoint x="625" y="924.47" as="sourcePoint" />
            <mxPoint as="offset" />
          </mxGeometry>
        </mxCell>
        <mxCell id="ThjzBNZsG-Bt_CLa7xAM-98" value="" style="html=1;points=[];perimeter=orthogonalPerimeter;outlineConnect=0;targetShapes=umlLifeline;portConstraint=eastwest;newEdgeStyle={&quot;edgeStyle&quot;:&quot;elbowEdgeStyle&quot;,&quot;elbow&quot;:&quot;vertical&quot;,&quot;curved&quot;:0,&quot;rounded&quot;:0};" parent="1" vertex="1">
          <mxGeometry x="310" y="830" width="10" height="39" as="geometry" />
        </mxCell>
        <mxCell id="ThjzBNZsG-Bt_CLa7xAM-101" value="18 : outcomeMessage" style="html=1;verticalAlign=bottom;endArrow=open;dashed=1;endSize=8;edgeStyle=elbowEdgeStyle;elbow=horizontal;curved=0;rounded=0;" parent="1" source="ThjzBNZsG-Bt_CLa7xAM-99" target="ThjzBNZsG-Bt_CLa7xAM-98" edge="1">
          <mxGeometry x="-0.001" relative="1" as="geometry">
            <mxPoint x="385" y="854.47" as="targetPoint" />
            <Array as="points">
              <mxPoint x="550" y="854.47" />
            </Array>
            <mxPoint x="625" y="854.47" as="sourcePoint" />
            <mxPoint as="offset" />
          </mxGeometry>
        </mxCell>
        <mxCell id="ThjzBNZsG-Bt_CLa7xAM-64" value="10 : updateScore(query)" style="html=1;verticalAlign=bottom;endArrow=block;edgeStyle=elbowEdgeStyle;elbow=vertical;curved=0;rounded=0;" parent="1" target="ThjzBNZsG-Bt_CLa7xAM-53" edge="1">
          <mxGeometry relative="1" as="geometry">
            <mxPoint x="634.9999999999995" y="571" as="sourcePoint" />
            <Array as="points">
              <mxPoint x="745" y="571" />
            </Array>
            <mxPoint x="970" y="590" as="targetPoint" />
          </mxGeometry>
        </mxCell>
        <mxCell id="ThjzBNZsG-Bt_CLa7xAM-66" value="11 : outcomeMessage" style="html=1;verticalAlign=bottom;endArrow=open;dashed=1;endSize=8;edgeStyle=elbowEdgeStyle;elbow=horizontal;curved=0;rounded=0;" parent="1" source="ThjzBNZsG-Bt_CLa7xAM-53" edge="1">
          <mxGeometry relative="1" as="geometry">
            <mxPoint x="634.9999999999995" y="599" as="targetPoint" />
            <Array as="points">
              <mxPoint x="760" y="599" />
            </Array>
            <mxPoint x="950" y="599" as="sourcePoint" />
          </mxGeometry>
        </mxCell>
        <mxCell id="qeb1lvdp-gpNPLeef0Pk-1" value="" style="html=1;points=[];perimeter=orthogonalPerimeter;outlineConnect=0;targetShapes=umlLifeline;portConstraint=eastwest;newEdgeStyle={&quot;edgeStyle&quot;:&quot;elbowEdgeStyle&quot;,&quot;elbow&quot;:&quot;vertical&quot;,&quot;curved&quot;:0,&quot;rounded&quot;:0};" vertex="1" parent="1">
          <mxGeometry x="630" y="503" width="10" height="26" as="geometry" />
        </mxCell>
        <mxCell id="qeb1lvdp-gpNPLeef0Pk-2" value="" style="endArrow=classic;html=1;rounded=0;" edge="1" parent="1" target="qeb1lvdp-gpNPLeef0Pk-1">
          <mxGeometry width="50" height="50" relative="1" as="geometry">
            <mxPoint x="635" y="480" as="sourcePoint" />
            <mxPoint x="725" y="480" as="targetPoint" />
            <Array as="points">
              <mxPoint x="675" y="480" />
              <mxPoint x="675" y="505" />
            </Array>
          </mxGeometry>
        </mxCell>
        <mxCell id="qeb1lvdp-gpNPLeef0Pk-3" value="&lt;font style=&quot;font-size: 11px;&quot;&gt;9 : checkIfManualEvalEnabled(battleId)&lt;/font&gt;" style="text;html=1;align=center;verticalAlign=middle;resizable=0;points=[];autosize=1;strokeColor=none;fillColor=none;" vertex="1" parent="1">
          <mxGeometry x="672" y="480" width="210" height="30" as="geometry" />
        </mxCell>
      </root>
    </mxGraphModel>
  </diagram>
</mxfile>
